<svg width="96" height="96" xmlns="http://www.w3.org/2000/svg" xmlns:xlink="http://www.w3.org/1999/xlink" xml:space="preserve" overflow="hidden"><g transform="translate(-130 -47)"><path d="M178.007 117.02C190.161 117.024 200.017 107.174 200.021 95.02 200.025 82.8659 190.175 73.0099 178.021 73.006 165.867 73.0021 156.011 82.8519 156.007 95.006 156.007 95.0083 156.007 95.0107 156.007 95.013 156.003 107.163 165.85 117.016 178 117.02 178.002 117.02 178.005 117.02 178.007 117.02ZM178.007 75.007C189.057 75.0031 198.017 83.9574 198.021 95.007 198.025 106.057 189.071 115.017 178.021 115.021 166.971 115.025 158.011 106.071 158.007 95.021 158.007 95.0183 158.007 95.0157 158.007 95.013 158.018 83.9709 166.965 75.0213 178.007 75.007Z" stroke="#FFC000" stroke-width="3" fill="#FFC000"/><path d="M177.005 51 179.005 51 179.005 69 177.005 69Z" stroke="#FFC000" stroke-width="3" fill="#FFC000"/><path d="M177.005 121 179.005 121 179.005 139 177.005 139Z" stroke="#FFC000" stroke-width="3" fill="#FFC000"/><path d="M204.005 94 222.005 94 222.005 96 204.005 96Z" stroke="#FFC000" stroke-width="3" fill="#FFC000"/><path d="M134.005 94 152.005 94 152.005 96 134.005 96Z" stroke="#FFC000" stroke-width="3" fill="#FFC000"/><path d="M195.683 114.092 197.097 112.677 209.825 125.405 208.411 126.82Z" stroke="#FFC000" stroke-width="3" fill="#FFC000"/><path d="M146.185 64.5949 147.599 63.1806 160.327 75.9083 158.913 77.3226Z" stroke="#FFC000" stroke-width="3" fill="#FFC000"/><path d="M146.185 125.406 158.913 112.678 160.327 114.092 147.599 126.82Z" stroke="#FFC000" stroke-width="3" fill="#FFC000"/><path d="M195.683 75.9086 208.411 63.1807 209.826 64.5949 197.098 77.3229Z" stroke="#FFC000" stroke-width="3" fill="#FFC000"/></g></svg>